<svg xmlns="http://www.w3.org/2000/svg" xmlns:xlink="http://www.w3.org/1999/xlink" viewBox="0 0 450.21 182.76"><defs><style>.cls-1{fill:url(#New_Gradient_Swatch);}.cls-2{fill:#fff;}.cls-3{fill:#30e494;}.cls-4{fill:#22cae4;}.cls-5{fill:url(#linear-gradient);}.cls-6{fill:url(#linear-gradient-2);}</style><linearGradient id="New_Gradient_Swatch" x1="17.07" y1="28.81" x2="141.76" y2="153.5" gradientUnits="userSpaceOnUse"><stop offset="0" stop-color="#30e494"></stop><stop offset="1" stop-color="#22cae4"></stop></linearGradient><linearGradient id="linear-gradient" x1="274.25" y1="118.27" x2="293.96" y2="137.99" gradientUnits="userSpaceOnUse"><stop offset="0" stop-color="#30e494"></stop><stop offset="0.65" stop-color="#22cae4"></stop></linearGradient><linearGradient id="linear-gradient-2" x1="259.65" y1="120.16" x2="272.61" y2="133.12" gradientUnits="userSpaceOnUse"><stop offset="0" stop-color="#30e494"></stop><stop offset="0" stop-color="#30e397"></stop><stop offset="0.28" stop-color="#2fe29a"></stop><stop offset="0.49" stop-color="#2edfa4"></stop><stop offset="0.68" stop-color="#2bdab4"></stop><stop offset="0.85" stop-color="#27d2cb"></stop><stop offset="1" stop-color="#22cae4"></stop></linearGradient></defs><title>logo white</title><g id="Layer_2" data-name="Layer 2"><g id="Layer_1-2" data-name="Layer 1"><path class="cls-1" d="M159,48a3.86,3.86,0,0,0-2.27-3.93c-5-2.76-10-5.65-15-8.59s-10.05-5.66-15-8.57C113.17,19,99.55,11.25,86,3.45c-.49-.29-.94-.94-1.77-.43,0,2.75.11,5.55,0,8.34A3,3,0,0,0,86,14.53q23.43,13.4,46.8,26.9,7.49,4.31,15,8.63c.66.39,1.59.59,1.6,1.6,0,2.75,0,5.5,0,8.65l-13.27-7.57-12.9-7.4-13.11-7.51c-4.3-2.46-8.59-5-12.91-7.39s-8.4-5-13-7.32c0,3.33.09,6.21,0,9.08A2.72,2.72,0,0,0,85.85,35q19.41,11,38.79,22l23.12,13.2c.68.39,1.54.61,1.54,1.63v8.3L84.19,42.64c0,3.4.1,6.34,0,9.26a3.24,3.24,0,0,0,1.95,3.38c8.93,5,17.8,10.1,26.7,15.16l23.55,13.39q5.73,3.26,11.45,6.55c.61.34,1.46.55,1.47,1.42a68,68,0,0,1-.15,8.85L84.19,63.22c0,3.28.13,6.06,0,8.83a3.22,3.22,0,0,0,2,3.36Q111.28,89.65,136.37,104q5.73,3.27,11.45,6.55c.6.35,1.43.57,1.45,1.45.07,2.83.1,5.66,0,8.8-5.89-2.8-10.85-6.37-16.18-9.32s-10.73-6.21-16.09-9.33-10.63-6.21-16-9.26S90.39,86.5,84.66,83.48v2.83l-.09,80.4c0,.56,0,1.12,0,1.68a1.21,1.21,0,0,1-.54,1.23,25.21,25.21,0,0,1-4.68,2.46V0c-3,1.54-5.53,3-8.18,4.22a2.17,2.17,0,0,0-1.37,2.46c.09,1.2.1,2.4.08,3.6a14.82,14.82,0,0,1-.1,3.94c-1.16.17-1.74-1.07-2.94-.8,0,2.53.1,5.09,0,7.63-.09,1.69.23,2.94,2,3.6a1.66,1.66,0,0,1,1.3,1.54v7.74c-1.22.15-1.67-1.12-2.77-.72,0,3.17,0,6.37,0,9.56,0,.92.25,1.58,1.13,1.86,1.52.49,1.79,1.59,1.7,3s0,2.72,0,4.08a7.42,7.42,0,0,1-.2,2.91c-1,.1-1.57-.83-2.58-.46,0,2.83,0,5.7,0,8.58,0,1,.59,1.39,1.27,1.85s1.5.76,1.5,1.72a59,59,0,0,1-.13,8c-1.2,0-1.8-1.06-3.08-1V83.51a1.15,1.15,0,0,0,1,1.21c2.26.49,2.34,2.08,2.33,4q-.08,37.32,0,74.64c0,.48,0,1,0,1.44-.07,1.44-.46,1.74-1.74,1.12-1.48-.72-2.82-1.76-4.34-2.34a3,3,0,0,1-2.14-3.66,9.61,9.61,0,0,0,0-1.2q0-72.72,0-145.44a6.5,6.5,0,0,0-.28-2.94c-2,1.12-3.92,2.14-5.79,3.19-3.75,2.11-3.16,1-3.22,5.46,0,1.78,0,3.56-.07,5.31-1.12,0-1.55-1.05-2.57-.64,0,2.85.05,5.73,0,8.6,0,1.29.28,2.13,1.62,2.5.75.21,1.53.51,1.51,1.58,0,2.7,0,5.4,0,8.08-1.23.24-1.83-.93-3.09-.78,0,3.23,0,6.48,0,9.72,0,1,.76,1.34,1.41,1.78s1.22.78,1.22,1.64c0,2.6,0,5.21,0,7.78-1.29.18-1.87-1-3.1-.79,0,3,0,6,0,9.05a1.61,1.61,0,0,0,1.12,1.65c1.7.63,2,1.84,2,3.56q-.07,37.8,0,75.6a4.41,4.41,0,0,1-.2,2.26.94.94,0,0,1-1-.15c-2.12-1.12-4-2.68-6.23-3.57A1.16,1.16,0,0,1,44.5,151c0-.72,0-1.44,0-2.16q0-62.88,0-125.76a5,5,0,0,0-.3-2.68c-2.48,1.36-4.81,2.75-7.24,3.94a2.74,2.74,0,0,0-1.75,3c.11,2.36,0,4.72,0,7.15-1.31-.06-2-1.13-3.24-1,0,2.88.06,5.68,0,8.47a2.82,2.82,0,0,0,1.73,3.06c.61.27,1.47.51,1.48,1.39A55.3,55.3,0,0,1,35,54.68c-1.24,0-1.75-1.44-3.05-.93,0,2.87,0,5.75,0,8.62a1.92,1.92,0,0,0,1.3,2.06c1.75.62,2,1.88,2,3.57q-.08,37.92,0,75.84a7.16,7.16,0,0,1-.23,2.74c-2.81-1.28-5.26-2.9-7.79-4.36a1.27,1.27,0,0,1-.63-1.21c0-.72,0-1.44,0-2.16q0-52.8,0-105.6a6.8,6.8,0,0,0-.24-2.76c-1.95,1.12-3.74,2.14-5.51,3.19-3.48,2.06-2.86.84-2.92,5.15,0,2,0,4.06,0,6.09-1.41-.05-1.9-1.34-3.24-1.33,0,3.29,0,6.53,0,9.78a1.22,1.22,0,0,0,1,1.22c1.63.47,1.85,1.6,1.85,3.12q-.08,38,0,76.08a4.6,4.6,0,0,1-.32,2.35,59,59,0,0,0-5.13-3.22c-1.81-.92-2.32-2.17-2.31-4.19q.11-42.84.05-85.68V39.92C6.83,41.53,4.46,43,2,44.24A3.22,3.22,0,0,0,0,47.6q.08,43.56,0,87.12a3.35,3.35,0,0,0,1.94,3.37c14.15,8.13,28.24,16.35,42.35,24.54q16.91,9.8,33.82,19.62a2.58,2.58,0,0,0,3,0c2.58-1.61,5.25-3.07,7.87-4.6q33.78-19.69,67.58-39.35a4.11,4.11,0,0,0,2.36-4.13Q158.87,91.11,159,48ZM93.82,164V100.17l.21-.07a.62.62,0,0,1,.23,0,2.38,2.38,0,0,1,.45.15l53.32,31c.27.16.51.37,1.08.79Z"></path><path class="cls-2" d="M392.54,50.44c2.82,0,5.45,0,8.07,0,1,0,1.17.45,1.31,1.29.92,5.68,1.89,11.35,2.83,17q1.51,9.1,3,18.21a1.47,1.47,0,0,0,.67,1c.21-.84.44-1.68.62-2.52,2.41-11.09,4.83-22.17,7.17-33.27.27-1.25.71-1.76,2-1.69a61.85,61.85,0,0,0,6.24,0c1.26-.07,1.62.49,1.86,1.6,2.05,9.61,4.16,19.2,6.25,28.8.52,2.37,1.06,4.74,1.68,7.56a11.53,11.53,0,0,0,1.08-4.32q2.73-15.94,5.31-31.92c.21-1.29.61-1.77,1.94-1.72,2.46.09,4.92,0,7.59,0-.84,4.14-1.62,8-2.43,11.92Q444,80.44,440.28,98.5c-.1.47-.22.93-.31,1.4a1,1,0,0,1-1.11.95c-2.88,0-5.76,0-8.64,0-1.08,0-1.08-.76-1.22-1.42-.74-3.27-1.45-6.55-2.16-9.83q-2.46-11.35-4.93-22.72c-.1-.46-.27-.9-.52-1.69a35.75,35.75,0,0,0-1.68,6.62c-2,9-3.93,17.94-5.89,26.92-.46,2.09-.46,2.1-2.6,2.11s-4.32,0-6.48,0c-1.86,0-1.88,0-2.27-1.9q-2.21-10.56-4.38-21.13-2.59-12.56-5.2-25.11C392.75,52,392.68,51.33,392.54,50.44Z"></path><path class="cls-2" d="M287.88,80.81c.62-.25,1-.41,1.35-.54,4.69-1.69,7.4-5.08,8.53-9.86a20.16,20.16,0,0,0,.34-6.92c-.83-7.55-5.72-12.55-13.05-12.93-5.67-.29-11.35-.09-17-.13-.94,0-1.32.34-1.23,1.26,0,.4,0,.8,0,1.2V98.24c0,.4,0,.8,0,1.2-.08,1,.21,1.46,1.32,1.43,2.31-.07,4.63,0,6.93,0a9.48,9.48,0,0,0,.24-3.44c0-4.88,0-9.76,0-14.63,0-.51-.3-1.3.41-1.44a11.39,11.39,0,0,1,2.86-.08c.79,0,.88.85,1.17,1.38.82,1.55,1.6,3.13,2.39,4.7l6.18,12.18c.32.62.52,1.34,1.48,1.33,2.75,0,5.5,0,8.61,0Zm-4.08-6.69a68.2,68.2,0,0,1-7.43.17c-.83,0-1.09-.41-1.09-1.19,0-2.24,0-4.48,0-6.72,0-2,0-4,0-6,0-1,.36-1.42,1.39-1.4,2.24.06,4.48,0,6.71.08,3.17.17,5,1.71,5.84,4.75a10.86,10.86,0,0,1,.14,5.22C288.72,72.15,287,73.69,283.8,74.12Z"></path><path class="cls-2" d="M259.31,67.4c0,4.63.05,9.27,0,13.9a25.64,25.64,0,0,1-2.38,10.92c-3,6.21-8.58,9.49-15.78,9.07-6.82-.4-11.46-3.93-14-10.25a28.5,28.5,0,0,1-1.79-10.57c-.06-9.35,0-18.7,0-28,0-2,0-2,2-2h4.07c2.79,0,2.48-.24,2.49,2.38,0,3.36,0,6.72,0,10.07q0,8.76,0,17.51a17.47,17.47,0,0,0,1,6.12,8,8,0,0,0,15.11-.09,20.54,20.54,0,0,0,.92-7.09q0-10.07,0-20.14c0-2.32,0-4.64,0-7,0-1.78,0-1.79,1.88-1.81s3.52.05,5.28,0c1.07,0,1.35.37,1.35,1.39,0,5.2,0,10.39,0,15.59Z"></path><path class="cls-2" d="M219.66,61.62c-1.44-6.44-5.23-10-11.68-11a22,22,0,0,0-3.35-.17q-6.36,0-12.71,0c-2.8,0-2.52-.25-2.52,2.61q0,22.55,0,45.08v1.68c0,.66.25,1,1,1,2.46,0,4.93,0,7.53,0V82.13c2.89,0,5.52.08,8.15,0,7.32-.25,12.38-4.53,13.72-11.68A21.84,21.84,0,0,0,219.66,61.62Zm-8.31,6.51c-.4,3.43-2.43,5.53-5.89,5.81-2.14.18-4.3,0-6.45.1-.85,0-1.1-.36-1.09-1.16,0-.49,0-1,0-1.46,0-.7,0-1.4,0-2.11V64.53c0-1.52,0-3,0-4.56,0-1.06.37-1.4,1.39-1.37,2,.07,4,0,6,.08,3.61.23,5.65,2.26,6.07,5.87A15.31,15.31,0,0,1,211.35,68.13Z"></path><path class="cls-2" d="M341.9,50.61c-1.62,5.38-3.2,10.65-4.77,15.92q-4.85,16.17-9.67,32.34c-.59,2-.59,2-2.54,2-2.4,0-4.8-.1-7.19,0-1.39.08-1.94-.4-2.32-1.71-2.32-8-4.74-15.91-7.12-23.86q-3.46-11.58-6.92-23.17a2.85,2.85,0,0,1-.2-1.68c2.69,0,5.45,0,8.2,0,.93,0,.84.83,1,1.39q2.07,7.13,4.11,14.27,3.13,10.92,6.25,21.86a2,2,0,0,0,.76,1.41c.25-.72.52-1.39.72-2.08q5-17.37,10-34.74c.77-2.66.54-2.13,2.88-2.13A46.06,46.06,0,0,1,341.9,50.61Z"></path><path class="cls-2" d="M371.17,71.52h12.2c.64,0,1.28,0,1.92,0s1,.33.95,1c0,1.84,0,3.68,0,5.51,0,1-.44,1.26-1.32,1.19-.47,0-1,0-1.44,0-3.51,0-7,0-10.54,0-1.74,0-1.77,0-1.78,1.64,0,3.43.06,6.87,0,10.31,0,1.34.5,1.57,1.67,1.56,4.23,0,8.47,0,12.7,0,2.82,0,2.47-.37,2.5,2.59,0,1.44,0,2.88,0,4.32,0,.95-.38,1.21-1.28,1.21q-11.39,0-22.78,0c-1,0-1.46-.35-1.37-1.38.05-.56,0-1.12,0-1.68V53.45a9.88,9.88,0,0,0,0-1.44c-.18-1.33.46-1.6,1.65-1.59q11.16.06,22.3,0c1.15,0,1.55.33,1.49,1.49a44.42,44.42,0,0,0,0,5c.08,1.32-.48,1.6-1.68,1.59-4.39-.06-8.79,0-13.18,0-2,0-2-.11-2,1.92C371.18,64,371.17,67.59,371.17,71.52Z"></path><path class="cls-2" d="M346.45,75.7q0-11.62,0-23.26c0-2,0-2,1.92-2,1.68,0,3.37.09,5,0,1.35-.1,1.67.49,1.55,1.66a9.61,9.61,0,0,0,0,1.2V98.12a13.64,13.64,0,0,0,0,1.43c.11,1.11-.46,1.34-1.43,1.31-1.76,0-3.52,0-5.28,0s-1.79,0-1.79-1.88C346.44,91.21,346.45,83.46,346.45,75.7Z"></path><path class="cls-3" d="M191.27,125.7c0-3.44,0-6.88,0-10.32,0-1.52.12-1.56,1.69-1.58s1.7,0,1.72,1.52c.05,2.32,0,4.64,0,7,0,1,.25,1.66,1.46,1.64q3.36-.08,6.72,0c1.11,0,1.32-.55,1.31-1.49,0-2.24,0-4.48,0-6.72,0-.6-.28-1.42.43-1.73a3.64,3.64,0,0,1,2.58,0c.57.19.42.8.42,1.25,0,2.4,0,4.8,0,7.19,0,4.64,0,9.28,0,13.92,0,.58.3,1.42-.58,1.61a3.4,3.4,0,0,1-2.56-.19c-.47-.28-.29-.87-.29-1.33,0-2.47,0-5,0-7.43,0-1.72,0-1.76-1.71-1.78-2.08,0-4.16,0-6.24,0-1.16,0-1.54.48-1.52,1.58,0,2.47,0,4.95,0,7.43,0,1.79-.08,1.83-1.66,1.83s-1.75-.07-1.76-1.76C191.25,132.74,191.27,129.22,191.27,125.7Z"></path><path class="cls-3" d="M246,119.78a.76.76,0,0,0-.6-.65c-1.62-.52-2.62.16-2.78,1.9a7.24,7.24,0,0,1-.15.81c-.72-.23-.87-.73-1.2-1.06a6.22,6.22,0,0,0-9.47.42c-3,3.63-3,11,0,14.6a6.21,6.21,0,0,0,9.62.32c.31-.33.43-.89,1-.9a5.15,5.15,0,0,1,.2,1.87.88.88,0,0,0,.67.86c1.75.56,2.72-.08,2.73-1.89q0-7.55,0-15.09C246.08,120.58,246.07,120.18,246,119.78Zm-4.38,12.73a4.37,4.37,0,0,1-7.66-.13,7.83,7.83,0,0,1,0-7.78,4.36,4.36,0,0,1,7.65-.07,6.67,6.67,0,0,1,1,3.87A6.9,6.9,0,0,1,241.65,132.51Z"></path><path class="cls-4" d="M332,136.66c0-4.47,0-8.94,0-13.4,0-.88,0-1.76,0-2.63,0-.4-.05-.86-.53-.95a4.3,4.3,0,0,0-2.36,0c-.76.29-.42,1.09-.5,1.69,0,.29,0,.62-.28.83s-.55-.28-.71-.52c-2.17-3.26-8-3.65-10.56,1.08a12.58,12.58,0,0,0,.1,12.6c2.23,4,7.19,4.43,10.3,1.09.27-.29.33-1,1.07-.68,0,.29.05.6.08.92.14,1.73.25,1.74,2,1.78C332.08,138.56,332,137.66,332,136.66Zm-4.35-3.78a4.4,4.4,0,0,1-7.79-.09,7.83,7.83,0,0,1,0-7.58,4.39,4.39,0,0,1,7.79-.12,8.83,8.83,0,0,1,0,7.79Z"></path><path class="cls-5" d="M282.3,122.64c.56-.62.73-.79.88-1,1.51-1.94,3.5-2.91,5.89-2.27a6.38,6.38,0,0,1,4.64,5,10.54,10.54,0,0,1,.28,2.38c0,3.44,0,6.88.07,10.32,0,1.27-.59,1.44-1.62,1.42-1.6,0-1.78-.12-1.8-1.49,0-3,0-6.08,0-9.12a6.07,6.07,0,0,0-.68-3.24,3.92,3.92,0,0,0-3.54-2.06,3.75,3.75,0,0,0-3.42,2.27,7.91,7.91,0,0,0-.69,3.5c0,2.8,0,5.6,0,8.4,0,1.55-.13,1.62-1.62,1.63s-1.69-.06-1.69-1.55q0-11.16,0-22.32c0-1.41.21-1.48,1.76-1.52,1.09,0,1.62.29,1.59,1.49C282.26,117,282.3,119.57,282.3,122.64Z"></path><path class="cls-6" d="M268.31,120.07c0,1,0,1.92,0,2.87s.38,1.45,1.41,1.42c1.51,0,3,0,4.55,0,1.08,0,1.54.27,1.59,1.46.13,3.3.18,3.25-3.14,3.32-1.4,0-3.15-.66-4.11.42s-.23,2.6-.29,3.94c0,1-.06,2.08,0,3.11.07,1.19-.51,1.48-1.58,1.52-2.63.11-2.67.11-2.68-2.51,0-1.51,0-3,0-4.55,0-1.91,0-1.92-2-1.95-1.28,0-2.56-.05-3.83,0s-1.75-.27-1.72-1.59c.08-3.73-.21-3.11,3-3.16,1,0,1.92,0,2.87,0,1.66-.06,1.69-.07,1.72-1.82s0-3.67,0-5.51.05-1.71,1.73-1.76a7.53,7.53,0,0,0,1,0c1.33-.16,1.65.54,1.59,1.71s0,2.07,0,3.11Z"></path><path class="cls-3" d="M216,129.28c1.51,0,3,0,4.55,0h2.87c3.74,0,3.94-.24,3.25-3.89a9.31,9.31,0,0,0-1-2.69,7.52,7.52,0,0,0-12.63-.85c-2.52,3.51-2.54,9.88,0,13.36a7.09,7.09,0,0,0,7.37,2.91,7.42,7.42,0,0,0,6-5.52c.14-.46.29-.94-.33-1.2a2.85,2.85,0,0,0-3.37,1.16,4.23,4.23,0,0,1-4.54,2.35,4.54,4.54,0,0,1-3.55-4C214.47,129.56,214.63,129.32,216,129.28Zm2.8-7.26a4.34,4.34,0,0,1,4.61,4.15c0,.93-.33,1.3-1.24,1.27-1.11,0-2.23,0-3.34,0v0c-1.12,0-2.23,0-3.34,0-.57,0-.81-.33-.83-.91A4.59,4.59,0,0,1,218.75,122Z"></path><path class="cls-4" d="M352.22,129.74c2.47,0,4.95,0,7.43,0,3.76,0,4.05-.37,3.24-4.1a8.84,8.84,0,0,0-.35-1.14,7.48,7.48,0,0,0-14-.67,12.74,12.74,0,0,0-.32,9.59,7.41,7.41,0,0,0,7.69,5.3,7.55,7.55,0,0,0,7-6.72c-1.84-.39-3.29-.52-4.19,1.6-.66,1.56-2.65,2.14-4.34,1.74a4.7,4.7,0,0,1-3.41-4.18C350.81,130.14,351.14,129.72,352.22,129.74Zm-1.12-3.85a4.34,4.34,0,0,1,8.58.68c.06.85-.16,1.38-1.14,1.36s-2.23,0-3.35,0h0c-.87,0-1.75,0-2.63,0C350.91,127.88,350.65,127.5,351.1,125.89Z"></path><path class="cls-4" d="M312.63,126.39c-.59.37-1.24.16-1.87.22a1.48,1.48,0,0,1-1.75-1.2,3.56,3.56,0,0,0-2.94-2.51,4.14,4.14,0,0,0-4.84,3,10.17,10.17,0,0,0,0,6.15,4,4,0,0,0,3.53,3.15c1.89.21,3.21-.54,4.25-2.44.25-.47.24-1.19,1-1.24a9.47,9.47,0,0,1,2.38,0c.64.13.4.75.31,1.21a7.54,7.54,0,0,1-6.19,5.92,7.43,7.43,0,0,1-7.71-3.73,12.24,12.24,0,0,1-1.3-7.9,10.49,10.49,0,0,1,1.25-3.86,7.38,7.38,0,0,1,8.38-3.62C310.35,120.32,312.36,122.79,312.63,126.39Z"></path><path class="cls-4" d="M340,122.08a7.92,7.92,0,0,1,4-2.7c.94-.21,1.39,0,1.36,1a9.89,9.89,0,0,0,0,1.44c.1,1.14-.24,1.62-1.54,1.79-3,.39-4.09,1.72-4.21,4.83-.1,2.79,0,5.59-.05,8.39,0,1.6-.09,1.63-1.59,1.65-1.66,0-1.81-.08-1.81-1.7,0-5.11,0-10.22,0-15.34,0-1-.05-1.9,1.43-1.87,1.71,0,1.74,0,2,1.74A5.71,5.71,0,0,0,340,122.08Z"></path><path class="cls-3" d="M250.31,124.91c0-3.59,0-7.18,0-10.77,0-1.55.11-1.59,1.67-1.6s1.74.09,1.74,1.54q0,11.13,0,22.26c0,1.55-.09,1.57-1.66,1.57s-1.73,0-1.74-1.51C250.29,132.57,250.32,128.74,250.31,124.91Z"></path></g></g></svg>